<svg xmlns="http://www.w3.org/2000/svg" xmlns:xlink="http://www.w3.org/1999/xlink" width="125" zoomAndPan="magnify" viewBox="0 20 122 25" height="35"  preserveAspectRatio="xMidYMid meet" version="1.0"><defs><g/><clipPath id="ff51dfd6d0"><path d="M 16 26 L 32.40625 26 L 32.40625 48.988281 L 16 48.988281 Z M 16 26 " clip-rule="nonzero"/></clipPath><clipPath id="6e5fcc4e94"><path d="M 0.28125 21 L 8 21 L 8 46 L 0.28125 46 Z M 0.28125 21 " clip-rule="nonzero"/></clipPath><clipPath id="9836a27e3e"><path d="M 9 16.863281 L 26 16.863281 L 26 21 L 9 21 Z M 9 16.863281 " clip-rule="nonzero"/></clipPath><clipPath id="fe5368cce9"><path d="M 11.570312 27.886719 L 21.386719 27.886719 L 21.386719 37.703125 L 11.570312 37.703125 Z M 11.570312 27.886719 " clip-rule="nonzero"/></clipPath><clipPath id="6a5ddffbb9"><path d="M 16.476562 27.886719 C 13.765625 27.886719 11.570312 30.085938 11.570312 32.796875 C 11.570312 35.507812 13.765625 37.703125 16.476562 37.703125 C 19.1875 37.703125 21.386719 35.507812 21.386719 32.796875 C 21.386719 30.085938 19.1875 27.886719 16.476562 27.886719 Z M 16.476562 27.886719 " clip-rule="nonzero"/></clipPath><clipPath id="c33abec62e"><path d="M 14.074219 30.390625 L 18.882812 30.390625 L 18.882812 35.199219 L 14.074219 35.199219 Z M 14.074219 30.390625 " clip-rule="nonzero"/></clipPath><clipPath id="424a0cfbf8"><path d="M 16.476562 30.390625 C 15.152344 30.390625 14.074219 31.46875 14.074219 32.796875 C 14.074219 34.125 15.152344 35.199219 16.476562 35.199219 C 17.804688 35.199219 18.882812 34.125 18.882812 32.796875 C 18.882812 31.46875 17.804688 30.390625 16.476562 30.390625 Z M 16.476562 30.390625 " clip-rule="nonzero"/></clipPath><clipPath id="5e39153c92"><path d="M 14.953125 31.273438 L 18.003906 31.273438 L 18.003906 34.320312 L 14.953125 34.320312 Z M 14.953125 31.273438 " clip-rule="nonzero"/></clipPath><clipPath id="6838f07eba"><path d="M 16.476562 31.273438 C 15.636719 31.273438 14.953125 31.953125 14.953125 32.796875 C 14.953125 33.636719 15.636719 34.320312 16.476562 34.320312 C 17.320312 34.320312 18.003906 33.636719 18.003906 32.796875 C 18.003906 31.953125 17.320312 31.273438 16.476562 31.273438 Z M 16.476562 31.273438 " clip-rule="nonzero"/></clipPath></defs><g clip-path="url(#ff51dfd6d0)"><path fill="#54afe6" d="M 17.160156 48.976562 C 17.03125 48.976562 16.929688 48.878906 16.921875 48.753906 C 16.914062 48.621094 17.015625 48.511719 17.148438 48.503906 C 25.4375 48.082031 31.933594 41.246094 31.933594 32.9375 C 31.933594 30.753906 31.492188 28.640625 30.613281 26.65625 C 30.5625 26.539062 30.617188 26.398438 30.734375 26.34375 C 30.855469 26.292969 30.996094 26.347656 31.046875 26.464844 C 31.953125 28.511719 32.410156 30.6875 32.410156 32.9375 C 32.410156 37.078125 30.832031 41.011719 27.96875 44.015625 C 25.113281 47.007812 21.28125 48.769531 17.171875 48.976562 C 17.167969 48.976562 17.164062 48.976562 17.160156 48.976562 " fill-opacity="1" fill-rule="nonzero"/></g><g clip-path="url(#6e5fcc4e94)"><path fill="#2c3587" d="M 7.042969 45.96875 C 6.996094 45.96875 6.945312 45.953125 6.902344 45.921875 C 4.898438 44.460938 3.234375 42.527344 2.089844 40.332031 C 0.910156 38.0625 0.285156 35.507812 0.285156 32.9375 C 0.285156 28.699219 1.925781 24.699219 4.90625 21.671875 C 5 21.578125 5.148438 21.578125 5.242188 21.667969 C 5.335938 21.761719 5.335938 21.910156 5.246094 22.003906 C 2.351562 24.941406 0.757812 28.824219 0.757812 32.9375 C 0.757812 37.894531 3.160156 42.605469 7.183594 45.539062 C 7.289062 45.617188 7.3125 45.765625 7.234375 45.871094 C 7.1875 45.933594 7.117188 45.96875 7.042969 45.96875 " fill-opacity="1" fill-rule="nonzero"/></g><g clip-path="url(#9836a27e3e)"><path fill="#2c3587" d="M 25.230469 20.082031 C 25.1875 20.082031 25.140625 20.070312 25.097656 20.042969 C 22.507812 18.28125 19.484375 17.347656 16.347656 17.347656 C 13.984375 17.347656 11.710938 17.867188 9.59375 18.886719 C 9.476562 18.945312 9.335938 18.894531 9.277344 18.777344 C 9.222656 18.660156 9.269531 18.515625 9.386719 18.460938 C 11.570312 17.40625 13.910156 16.875 16.347656 16.875 C 19.578125 16.875 22.699219 17.832031 25.367188 19.648438 C 25.472656 19.722656 25.5 19.871094 25.429688 19.980469 C 25.382812 20.046875 25.308594 20.082031 25.230469 20.082031 " fill-opacity="1" fill-rule="nonzero"/></g><path fill="#286291" d="M 24.964844 45.058594 C 24.890625 45.058594 24.820312 45.027344 24.773438 44.960938 C 24.695312 44.855469 24.71875 44.707031 24.824219 44.628906 C 26.800781 43.191406 28.394531 41.269531 29.429688 39.066406 C 29.488281 38.949219 29.628906 38.898438 29.746094 38.953125 C 29.863281 39.007812 29.914062 39.148438 29.859375 39.269531 C 28.789062 41.542969 27.144531 43.53125 25.105469 45.015625 C 25.0625 45.042969 25.011719 45.058594 24.964844 45.058594 " fill-opacity="1" fill-rule="nonzero"/><path fill="#f1ad53" d="M 16.347656 47.859375 C 13.132812 47.859375 10.066406 46.847656 7.484375 44.9375 C 6.242188 44.019531 5.152344 42.917969 4.25 41.664062 C 3.332031 40.394531 2.621094 39.003906 2.144531 37.519531 C 2.101562 37.394531 2.171875 37.261719 2.296875 37.222656 C 2.421875 37.179688 2.554688 37.25 2.59375 37.375 C 4.53125 43.363281 10.058594 47.386719 16.347656 47.386719 C 17.632812 47.386719 18.910156 47.214844 20.140625 46.878906 C 20.265625 46.847656 20.398438 46.921875 20.429688 47.046875 C 20.464844 47.171875 20.390625 47.304688 20.265625 47.339844 C 18.992188 47.683594 17.675781 47.859375 16.347656 47.859375 " fill-opacity="1" fill-rule="nonzero"/><path fill="#f1ad53" d="M 31.03125 32.871094 C 30.902344 32.871094 30.796875 32.769531 30.792969 32.640625 C 30.636719 24.835938 24.15625 18.488281 16.347656 18.488281 C 11.660156 18.488281 7.238281 20.785156 4.527344 24.632812 C 4.453125 24.738281 4.304688 24.765625 4.199219 24.691406 C 4.089844 24.613281 4.066406 24.464844 4.140625 24.359375 C 5.492188 22.441406 7.300781 20.847656 9.367188 19.746094 C 11.503906 18.613281 13.917969 18.011719 16.347656 18.011719 C 20.273438 18.011719 23.984375 19.53125 26.792969 22.289062 C 29.597656 25.042969 31.1875 28.714844 31.269531 32.628906 C 31.269531 32.761719 31.167969 32.867188 31.035156 32.871094 C 31.035156 32.871094 31.03125 32.871094 31.03125 32.871094 " fill-opacity="1" fill-rule="nonzero"/><path fill="#f1ad53" d="M 12.507812 46.167969 C 12.488281 46.167969 12.464844 46.164062 12.441406 46.15625 C 9.648438 45.332031 7.136719 43.589844 5.363281 41.257812 C 3.53125 38.84375 2.5625 35.964844 2.5625 32.9375 C 2.5625 27.875 5.335938 23.226562 9.800781 20.808594 C 9.914062 20.746094 10.058594 20.789062 10.121094 20.902344 C 10.183594 21.019531 10.140625 21.164062 10.027344 21.226562 C 5.714844 23.5625 3.035156 28.050781 3.035156 32.9375 C 3.035156 38.792969 6.960938 44.039062 12.578125 45.703125 C 12.703125 45.738281 12.773438 45.871094 12.738281 45.996094 C 12.707031 46.101562 12.613281 46.167969 12.507812 46.167969 " fill-opacity="1" fill-rule="nonzero"/><path fill="#544f9f" d="M 16.347656 46.722656 C 16.296875 46.722656 16.246094 46.71875 16.199219 46.71875 C 16.066406 46.71875 15.960938 46.613281 15.964844 46.480469 C 15.964844 46.351562 16.070312 46.246094 16.199219 46.246094 C 16.203125 46.246094 16.203125 46.246094 16.203125 46.246094 C 16.25 46.246094 16.300781 46.246094 16.347656 46.246094 C 23.6875 46.246094 29.65625 40.277344 29.65625 32.9375 C 29.65625 25.597656 23.6875 19.625 16.347656 19.625 C 16.238281 19.625 16.128906 19.628906 16.019531 19.628906 C 15.886719 19.632812 15.78125 19.53125 15.777344 19.398438 C 15.773438 19.269531 15.878906 19.160156 16.007812 19.15625 C 16.121094 19.152344 16.234375 19.152344 16.347656 19.152344 C 23.949219 19.152344 30.132812 25.335938 30.132812 32.9375 C 30.132812 40.535156 23.949219 46.722656 16.347656 46.722656 " fill-opacity="1" fill-rule="nonzero"/><path fill="#f0401e" d="M 16.347656 45.582031 C 9.375 45.582031 3.699219 39.910156 3.699219 32.9375 C 3.699219 25.964844 9.375 20.289062 16.347656 20.289062 C 17.308594 20.289062 18.269531 20.398438 19.199219 20.613281 C 19.328125 20.644531 19.40625 20.773438 19.375 20.898438 C 19.347656 21.027344 19.21875 21.105469 19.09375 21.078125 C 18.195312 20.871094 17.273438 20.765625 16.347656 20.765625 C 9.636719 20.765625 4.175781 26.226562 4.175781 32.9375 C 4.175781 39.648438 9.636719 45.109375 16.347656 45.109375 C 17.625 45.109375 18.886719 44.910156 20.09375 44.515625 C 20.21875 44.476562 20.351562 44.546875 20.394531 44.671875 C 20.433594 44.792969 20.363281 44.929688 20.238281 44.96875 C 18.984375 45.375 17.675781 45.582031 16.347656 45.582031 " fill-opacity="1" fill-rule="nonzero"/><path fill="#544f9f" d="M 24.6875 42.351562 C 24.625 42.351562 24.558594 42.324219 24.511719 42.273438 C 24.425781 42.175781 24.433594 42.027344 24.53125 41.9375 C 27.0625 39.632812 28.519531 36.351562 28.519531 32.9375 C 28.519531 28.933594 26.539062 25.183594 23.230469 22.902344 C 23.121094 22.828125 23.09375 22.679688 23.167969 22.574219 C 23.242188 22.464844 23.390625 22.4375 23.5 22.511719 C 26.9375 24.878906 28.992188 28.777344 28.992188 32.9375 C 28.992188 34.746094 28.617188 36.496094 27.875 38.132812 C 27.15625 39.71875 26.140625 41.117188 24.847656 42.289062 C 24.804688 42.332031 24.746094 42.351562 24.6875 42.351562 " fill-opacity="1" fill-rule="nonzero"/><path fill="#f0401e" d="M 16.347656 44.441406 C 12.429688 44.441406 8.816406 42.472656 6.679688 39.175781 C 6.609375 39.0625 6.640625 38.917969 6.75 38.847656 C 6.863281 38.773438 7.007812 38.804688 7.078125 38.917969 C 9.128906 42.078125 12.59375 43.96875 16.347656 43.96875 C 22.429688 43.96875 27.378906 39.019531 27.378906 32.9375 C 27.378906 32.453125 27.347656 31.964844 27.285156 31.488281 C 27.265625 31.359375 27.359375 31.238281 27.488281 31.222656 C 27.617188 31.203125 27.738281 31.296875 27.753906 31.425781 C 27.820312 31.921875 27.851562 32.429688 27.851562 32.9375 C 27.851562 39.28125 22.691406 44.441406 16.347656 44.441406 " fill-opacity="1" fill-rule="nonzero"/><path fill="#f1ad53" d="M 5.089844 33.710938 C 4.964844 33.710938 4.859375 33.609375 4.851562 33.484375 C 4.84375 33.300781 4.839844 33.117188 4.839844 32.9375 C 4.839844 26.589844 10.003906 21.429688 16.347656 21.429688 C 20.90625 21.429688 25.042969 24.132812 26.882812 28.316406 C 26.9375 28.433594 26.882812 28.574219 26.761719 28.628906 C 26.644531 28.679688 26.503906 28.625 26.449219 28.507812 C 24.683594 24.496094 20.71875 21.902344 16.347656 21.902344 C 10.265625 21.902344 5.316406 26.851562 5.316406 32.9375 C 5.316406 33.109375 5.320312 33.289062 5.328125 33.460938 C 5.332031 33.589844 5.230469 33.703125 5.101562 33.707031 C 5.097656 33.707031 5.09375 33.710938 5.089844 33.710938 " fill-opacity="1" fill-rule="nonzero"/><path fill="#5db3e7" d="M 16.347656 43.304688 C 10.628906 43.304688 5.980469 38.652344 5.980469 32.9375 C 5.980469 31.277344 6.359375 29.691406 7.113281 28.222656 C 7.175781 28.105469 7.316406 28.058594 7.433594 28.121094 C 7.550781 28.179688 7.597656 28.320312 7.535156 28.4375 C 6.816406 29.839844 6.453125 31.351562 6.453125 32.9375 C 6.453125 38.390625 10.890625 42.828125 16.347656 42.828125 C 19.3125 42.828125 22.101562 41.507812 23.992188 39.207031 C 24.074219 39.105469 24.226562 39.09375 24.328125 39.175781 C 24.425781 39.257812 24.441406 39.40625 24.359375 39.507812 C 22.378906 41.921875 19.457031 43.304688 16.347656 43.304688 " fill-opacity="1" fill-rule="nonzero"/><path fill="#54afe6" d="M 25.980469 36.304688 C 25.957031 36.304688 25.933594 36.300781 25.910156 36.292969 C 25.785156 36.25 25.714844 36.117188 25.757812 35.992188 C 26.078125 35.007812 26.238281 33.980469 26.238281 32.9375 C 26.238281 27.480469 21.800781 23.042969 16.347656 23.042969 C 14.738281 23.042969 13.144531 23.4375 11.730469 24.1875 C 11.613281 24.25 11.46875 24.207031 11.410156 24.089844 C 11.347656 23.972656 11.390625 23.832031 11.507812 23.769531 C 12.988281 22.984375 14.664062 22.570312 16.347656 22.570312 C 22.0625 22.570312 26.714844 27.21875 26.714844 32.9375 C 26.714844 34.03125 26.542969 35.109375 26.207031 36.140625 C 26.175781 36.242188 26.082031 36.304688 25.980469 36.304688 " fill-opacity="1" fill-rule="nonzero"/><path fill="#544f9f" d="M 16.347656 42.164062 C 15.628906 42.164062 14.914062 42.082031 14.222656 41.917969 C 14.09375 41.886719 14.015625 41.757812 14.046875 41.632812 C 14.074219 41.503906 14.203125 41.425781 14.332031 41.457031 C 14.988281 41.609375 15.667969 41.691406 16.347656 41.691406 C 21.171875 41.691406 25.101562 37.761719 25.101562 32.9375 C 25.101562 28.109375 21.171875 24.183594 16.347656 24.183594 C 11.519531 24.183594 7.59375 28.109375 7.59375 32.9375 C 7.59375 35.492188 8.710938 37.917969 10.660156 39.585938 C 10.761719 39.671875 10.773438 39.820312 10.6875 39.921875 C 10.601562 40.019531 10.453125 40.03125 10.351562 39.949219 C 8.296875 38.1875 7.117188 35.632812 7.117188 32.9375 C 7.117188 27.847656 11.257812 23.707031 16.347656 23.707031 C 21.433594 23.707031 25.574219 27.847656 25.574219 32.9375 C 25.574219 38.023438 21.433594 42.164062 16.347656 42.164062 " fill-opacity="1" fill-rule="nonzero"/><path fill="#f1ad53" d="M 16.347656 41.027344 C 14.707031 41.027344 13.125 40.535156 11.777344 39.609375 C 10.460938 38.703125 9.445312 37.445312 8.847656 35.96875 C 8.796875 35.847656 8.855469 35.710938 8.976562 35.660156 C 9.101562 35.609375 9.238281 35.667969 9.289062 35.792969 C 10.460938 38.683594 13.230469 40.550781 16.347656 40.550781 C 20.546875 40.550781 23.960938 37.136719 23.960938 32.9375 C 23.960938 30.066406 22.367188 27.464844 19.804688 26.152344 C 19.6875 26.09375 19.640625 25.949219 19.703125 25.832031 C 19.761719 25.71875 19.90625 25.671875 20.019531 25.730469 C 21.328125 26.398438 22.429688 27.410156 23.210938 28.660156 C 24.011719 29.941406 24.4375 31.421875 24.4375 32.9375 C 24.4375 37.398438 20.808594 41.027344 16.347656 41.027344 " fill-opacity="1" fill-rule="nonzero"/><path fill="#5db3e7" d="M 8.757812 31.152344 C 8.738281 31.152344 8.71875 31.148438 8.699219 31.144531 C 8.570312 31.109375 8.496094 30.980469 8.53125 30.855469 C 8.96875 29.210938 9.941406 27.710938 11.277344 26.636719 C 12.648438 25.53125 14.304688 24.914062 16.0625 24.851562 C 16.195312 24.847656 16.304688 24.949219 16.308594 25.082031 C 16.3125 25.210938 16.210938 25.320312 16.078125 25.324219 C 12.761719 25.441406 9.84375 27.765625 8.988281 30.976562 C 8.960938 31.082031 8.863281 31.152344 8.757812 31.152344 " fill-opacity="1" fill-rule="nonzero"/><path fill="#f14d27" d="M 16.347656 39.886719 C 12.515625 39.886719 9.398438 36.769531 9.398438 32.9375 C 9.398438 29.105469 12.515625 25.984375 16.347656 25.984375 C 20.179688 25.984375 23.296875 29.105469 23.296875 32.9375 C 23.296875 33.46875 23.238281 34.003906 23.117188 34.519531 C 23.085938 34.644531 22.960938 34.722656 22.832031 34.695312 C 22.703125 34.664062 22.625 34.539062 22.652344 34.410156 C 22.765625 33.929688 22.824219 33.433594 22.824219 32.9375 C 22.824219 29.367188 19.917969 26.460938 16.347656 26.460938 C 12.777344 26.460938 9.871094 29.367188 9.871094 32.9375 C 9.871094 36.507812 12.777344 39.414062 16.347656 39.414062 C 17.527344 39.414062 18.679688 39.089844 19.6875 38.484375 C 19.796875 38.417969 19.945312 38.453125 20.011719 38.566406 C 20.078125 38.679688 20.042969 38.824219 19.929688 38.890625 C 18.851562 39.542969 17.613281 39.886719 16.347656 39.886719 " fill-opacity="1" fill-rule="nonzero"/><g fill="#0040e6" fill-opacity="1"><g transform="translate(45.97794, 44.1074)"><g><path d="M 3.265625 -22.578125 C 3.265625 -23.347656 3.535156 -24 4.078125 -24.53125 C 4.617188 -25.070312 5.269531 -25.34375 6.03125 -25.34375 C 6.800781 -25.34375 7.453125 -25.070312 7.984375 -24.53125 C 8.523438 -24 8.796875 -23.347656 8.796875 -22.578125 L 8.796875 -2.546875 C 8.796875 -1.785156 8.523438 -1.132812 7.984375 -0.59375 C 7.453125 -0.0507812 6.800781 0.21875 6.03125 0.21875 C 5.269531 0.21875 4.617188 -0.0507812 4.078125 -0.59375 C 3.535156 -1.132812 3.265625 -1.785156 3.265625 -2.546875 Z M 3.265625 -22.578125 "/></g></g></g><g fill="#0040e6" fill-opacity="1"><g transform="translate(56.10323, 44.1074)"><g><path d="M 4.0625 -7.28125 C 4.414062 -7.28125 4.71875 -7.226562 4.96875 -7.125 C 5.21875 -7.019531 5.441406 -6.90625 5.640625 -6.78125 C 6.597656 -6.09375 7.601562 -5.546875 8.65625 -5.140625 C 9.707031 -4.734375 10.84375 -4.53125 12.0625 -4.53125 C 13.207031 -4.53125 14.097656 -4.738281 14.734375 -5.15625 C 15.367188 -5.570312 15.6875 -6.148438 15.6875 -6.890625 L 15.6875 -6.96875 C 15.6875 -7.320312 15.617188 -7.632812 15.484375 -7.90625 C 15.359375 -8.1875 15.109375 -8.453125 14.734375 -8.703125 C 14.367188 -8.953125 13.851562 -9.191406 13.1875 -9.421875 C 12.53125 -9.648438 11.675781 -9.894531 10.625 -10.15625 C 9.351562 -10.46875 8.203125 -10.804688 7.171875 -11.171875 C 6.148438 -11.546875 5.28125 -12.019531 4.5625 -12.59375 C 3.84375 -13.175781 3.285156 -13.882812 2.890625 -14.71875 C 2.492188 -15.5625 2.296875 -16.601562 2.296875 -17.84375 L 2.296875 -17.921875 C 2.296875 -19.066406 2.507812 -20.097656 2.9375 -21.015625 C 3.375 -21.941406 3.976562 -22.738281 4.75 -23.40625 C 5.53125 -24.082031 6.457031 -24.597656 7.53125 -24.953125 C 8.613281 -25.316406 9.800781 -25.5 11.09375 -25.5 C 14.132812 -25.5 16.789062 -24.753906 19.0625 -23.265625 C 19.375 -23.078125 19.65625 -22.800781 19.90625 -22.4375 C 20.15625 -22.082031 20.28125 -21.628906 20.28125 -21.078125 C 20.28125 -20.359375 20.03125 -19.753906 19.53125 -19.265625 C 19.03125 -18.773438 18.421875 -18.53125 17.703125 -18.53125 C 17.203125 -18.53125 16.734375 -18.660156 16.296875 -18.921875 C 14.484375 -20.046875 12.722656 -20.609375 11.015625 -20.609375 C 9.941406 -20.609375 9.132812 -20.398438 8.59375 -19.984375 C 8.0625 -19.566406 7.796875 -19.046875 7.796875 -18.421875 L 7.796875 -18.34375 C 7.796875 -17.914062 7.875 -17.554688 8.03125 -17.265625 C 8.1875 -16.984375 8.46875 -16.726562 8.875 -16.5 C 9.28125 -16.269531 9.832031 -16.039062 10.53125 -15.8125 C 11.238281 -15.582031 12.132812 -15.328125 13.21875 -15.046875 C 14.476562 -14.710938 15.601562 -14.332031 16.59375 -13.90625 C 17.59375 -13.488281 18.429688 -12.988281 19.109375 -12.40625 C 19.796875 -11.820312 20.3125 -11.132812 20.65625 -10.34375 C 21.007812 -9.550781 21.1875 -8.601562 21.1875 -7.5 L 21.1875 -7.4375 C 21.1875 -6.1875 20.957031 -5.078125 20.5 -4.109375 C 20.039062 -3.140625 19.40625 -2.328125 18.59375 -1.671875 C 17.78125 -1.015625 16.8125 -0.507812 15.6875 -0.15625 C 14.5625 0.1875 13.316406 0.359375 11.953125 0.359375 C 10.304688 0.359375 8.679688 0.109375 7.078125 -0.390625 C 5.472656 -0.898438 3.953125 -1.65625 2.515625 -2.65625 C 2.203125 -2.875 1.945312 -3.164062 1.75 -3.53125 C 1.5625 -3.90625 1.46875 -4.304688 1.46875 -4.734375 C 1.46875 -5.453125 1.71875 -6.054688 2.21875 -6.546875 C 2.726562 -7.035156 3.34375 -7.28125 4.0625 -7.28125 Z M 4.0625 -7.28125 "/></g></g></g><g fill="#0040e6" fill-opacity="1"><g transform="translate(77.144103, 44.1074)"><g><path d="M 4.0625 -7.28125 C 4.414062 -7.28125 4.71875 -7.226562 4.96875 -7.125 C 5.21875 -7.019531 5.441406 -6.90625 5.640625 -6.78125 C 6.597656 -6.09375 7.601562 -5.546875 8.65625 -5.140625 C 9.707031 -4.734375 10.84375 -4.53125 12.0625 -4.53125 C 13.207031 -4.53125 14.097656 -4.738281 14.734375 -5.15625 C 15.367188 -5.570312 15.6875 -6.148438 15.6875 -6.890625 L 15.6875 -6.96875 C 15.6875 -7.320312 15.617188 -7.632812 15.484375 -7.90625 C 15.359375 -8.1875 15.109375 -8.453125 14.734375 -8.703125 C 14.367188 -8.953125 13.851562 -9.191406 13.1875 -9.421875 C 12.53125 -9.648438 11.675781 -9.894531 10.625 -10.15625 C 9.351562 -10.46875 8.203125 -10.804688 7.171875 -11.171875 C 6.148438 -11.546875 5.28125 -12.019531 4.5625 -12.59375 C 3.84375 -13.175781 3.285156 -13.882812 2.890625 -14.71875 C 2.492188 -15.5625 2.296875 -16.601562 2.296875 -17.84375 L 2.296875 -17.921875 C 2.296875 -19.066406 2.507812 -20.097656 2.9375 -21.015625 C 3.375 -21.941406 3.976562 -22.738281 4.75 -23.40625 C 5.53125 -24.082031 6.457031 -24.597656 7.53125 -24.953125 C 8.613281 -25.316406 9.800781 -25.5 11.09375 -25.5 C 14.132812 -25.5 16.789062 -24.753906 19.0625 -23.265625 C 19.375 -23.078125 19.65625 -22.800781 19.90625 -22.4375 C 20.15625 -22.082031 20.28125 -21.628906 20.28125 -21.078125 C 20.28125 -20.359375 20.03125 -19.753906 19.53125 -19.265625 C 19.03125 -18.773438 18.421875 -18.53125 17.703125 -18.53125 C 17.203125 -18.53125 16.734375 -18.660156 16.296875 -18.921875 C 14.484375 -20.046875 12.722656 -20.609375 11.015625 -20.609375 C 9.941406 -20.609375 9.132812 -20.398438 8.59375 -19.984375 C 8.0625 -19.566406 7.796875 -19.046875 7.796875 -18.421875 L 7.796875 -18.34375 C 7.796875 -17.914062 7.875 -17.554688 8.03125 -17.265625 C 8.1875 -16.984375 8.46875 -16.726562 8.875 -16.5 C 9.28125 -16.269531 9.832031 -16.039062 10.53125 -15.8125 C 11.238281 -15.582031 12.132812 -15.328125 13.21875 -15.046875 C 14.476562 -14.710938 15.601562 -14.332031 16.59375 -13.90625 C 17.59375 -13.488281 18.429688 -12.988281 19.109375 -12.40625 C 19.796875 -11.820312 20.3125 -11.132812 20.65625 -10.34375 C 21.007812 -9.550781 21.1875 -8.601562 21.1875 -7.5 L 21.1875 -7.4375 C 21.1875 -6.1875 20.957031 -5.078125 20.5 -4.109375 C 20.039062 -3.140625 19.40625 -2.328125 18.59375 -1.671875 C 17.78125 -1.015625 16.8125 -0.507812 15.6875 -0.15625 C 14.5625 0.1875 13.316406 0.359375 11.953125 0.359375 C 10.304688 0.359375 8.679688 0.109375 7.078125 -0.390625 C 5.472656 -0.898438 3.953125 -1.65625 2.515625 -2.65625 C 2.203125 -2.875 1.945312 -3.164062 1.75 -3.53125 C 1.5625 -3.90625 1.46875 -4.304688 1.46875 -4.734375 C 1.46875 -5.453125 1.71875 -6.054688 2.21875 -6.546875 C 2.726562 -7.035156 3.34375 -7.28125 4.0625 -7.28125 Z M 4.0625 -7.28125 "/></g></g></g><g fill="#0040e6" fill-opacity="1"><g transform="translate(98.184977, 44.1074)"><g><path d="M 3.015625 -22.375 C 3.015625 -23.132812 3.28125 -23.785156 3.8125 -24.328125 C 4.351562 -24.867188 5.007812 -25.140625 5.78125 -25.140625 L 13.28125 -25.140625 C 14.789062 -25.140625 16.140625 -24.925781 17.328125 -24.5 C 18.515625 -24.082031 19.519531 -23.488281 20.34375 -22.71875 C 21.164062 -21.957031 21.796875 -21.046875 22.234375 -19.984375 C 22.679688 -18.921875 22.90625 -17.738281 22.90625 -16.4375 L 22.90625 -16.375 C 22.90625 -14.914062 22.640625 -13.632812 22.109375 -12.53125 C 21.585938 -11.425781 20.863281 -10.503906 19.9375 -9.765625 C 19.019531 -9.023438 17.941406 -8.46875 16.703125 -8.09375 C 15.472656 -7.726562 14.15625 -7.546875 12.75 -7.546875 L 8.546875 -7.546875 L 8.546875 -2.546875 C 8.546875 -1.785156 8.273438 -1.132812 7.734375 -0.59375 C 7.203125 -0.0507812 6.550781 0.21875 5.78125 0.21875 C 5.007812 0.21875 4.351562 -0.0507812 3.8125 -0.59375 C 3.28125 -1.132812 3.015625 -1.785156 3.015625 -2.546875 Z M 8.546875 -12.453125 L 12.921875 -12.453125 C 14.316406 -12.453125 15.394531 -12.816406 16.15625 -13.546875 C 16.925781 -14.285156 17.3125 -15.191406 17.3125 -16.265625 L 17.3125 -16.34375 C 17.3125 -17.582031 16.910156 -18.523438 16.109375 -19.171875 C 15.304688 -19.816406 14.207031 -20.140625 12.8125 -20.140625 L 8.546875 -20.140625 Z M 8.546875 -12.453125 "/></g></g></g><g clip-path="url(#fe5368cce9)"><g clip-path="url(#6a5ddffbb9)"><path fill="#0040e6" d="M 11.570312 27.886719 L 21.386719 27.886719 L 21.386719 37.703125 L 11.570312 37.703125 Z M 11.570312 27.886719 " fill-opacity="1" fill-rule="nonzero"/></g></g><g clip-path="url(#c33abec62e)"><g clip-path="url(#424a0cfbf8)"><path fill="#f1c400" d="M 14.074219 30.390625 L 18.882812 30.390625 L 18.882812 35.199219 L 14.074219 35.199219 Z M 14.074219 30.390625 " fill-opacity="1" fill-rule="nonzero"/></g></g><g clip-path="url(#5e39153c92)"><g clip-path="url(#6838f07eba)"><path fill="#a50e0a" d="M 14.953125 31.273438 L 18.003906 31.273438 L 18.003906 34.320312 L 14.953125 34.320312 Z M 14.953125 31.273438 " fill-opacity="1" fill-rule="nonzero"/></g></g></svg>
