<svg xmlns="http://www.w3.org/2000/svg" xmlns:xlink="http://www.w3.org/1999/xlink" width="125" zoomAndPan="magnify" viewBox="0 20 122 25" height="35" preserveAspectRatio="xMidYMid meet" version="1.0"><defs><g/><clipPath id="6553e9d0d7"><path d="M 12.722656 28.613281 L 20.875 28.613281 L 20.875 36.765625 L 12.722656 36.765625 Z M 12.722656 28.613281 " clip-rule="nonzero"/></clipPath><clipPath id="93c827262f"><path d="M 16.800781 28.613281 C 14.546875 28.613281 12.722656 30.4375 12.722656 32.6875 C 12.722656 34.941406 14.546875 36.765625 16.800781 36.765625 C 19.050781 36.765625 20.875 34.941406 20.875 32.6875 C 20.875 30.4375 19.050781 28.613281 16.800781 28.613281 Z M 16.800781 28.613281 " clip-rule="nonzero"/></clipPath><clipPath id="b5465aef21"><path d="M 17 26 L 32.726562 26 L 32.726562 48.875 L 17 48.875 Z M 17 26 " clip-rule="nonzero"/></clipPath><clipPath id="43d68ce008"><path d="M 0.605469 21 L 8 21 L 8 46 L 0.605469 46 Z M 0.605469 21 " clip-rule="nonzero"/></clipPath><clipPath id="ea8e7d05f4"><path d="M 9 16.75 L 26 16.75 L 26 20 L 9 20 Z M 9 16.75 " clip-rule="nonzero"/></clipPath></defs><g clip-path="url(#6553e9d0d7)"><g clip-path="url(#93c827262f)"><path fill="#ffffff" d="M 12.722656 28.613281 L 20.875 28.613281 L 20.875 36.765625 L 12.722656 36.765625 Z M 12.722656 28.613281 " fill-opacity="1" fill-rule="nonzero"/></g></g><g clip-path="url(#b5465aef21)"><path fill="#54afe6" d="M 17.480469 48.863281 C 17.355469 48.863281 17.25 48.765625 17.242188 48.640625 C 17.238281 48.507812 17.335938 48.398438 17.46875 48.390625 C 25.761719 47.96875 32.257812 41.128906 32.257812 32.820312 C 32.257812 30.640625 31.8125 28.527344 30.933594 26.542969 C 30.882812 26.421875 30.9375 26.285156 31.054688 26.230469 C 31.175781 26.175781 31.316406 26.230469 31.371094 26.351562 C 32.273438 28.394531 32.730469 30.574219 32.730469 32.820312 C 32.730469 36.960938 31.152344 40.894531 28.289062 43.898438 C 25.4375 46.890625 21.601562 48.65625 17.492188 48.863281 C 17.488281 48.863281 17.484375 48.863281 17.480469 48.863281 " fill-opacity="1" fill-rule="nonzero"/></g><g clip-path="url(#43d68ce008)"><path fill="#2c3587" d="M 7.363281 45.855469 C 7.316406 45.855469 7.265625 45.839844 7.226562 45.808594 C 5.21875 44.347656 3.554688 42.414062 2.410156 40.21875 C 1.230469 37.949219 0.605469 35.390625 0.605469 32.820312 C 0.605469 28.585938 2.246094 24.585938 5.226562 21.558594 C 5.320312 21.464844 5.46875 21.464844 5.5625 21.554688 C 5.65625 21.648438 5.65625 21.796875 5.566406 21.890625 C 2.671875 24.828125 1.078125 28.710938 1.078125 32.820312 C 1.078125 37.78125 3.480469 42.492188 7.503906 45.425781 C 7.609375 45.503906 7.632812 45.652344 7.554688 45.757812 C 7.511719 45.820312 7.4375 45.855469 7.363281 45.855469 " fill-opacity="1" fill-rule="nonzero"/></g><g clip-path="url(#ea8e7d05f4)"><path fill="#2c3587" d="M 25.550781 19.96875 C 25.507812 19.96875 25.460938 19.957031 25.417969 19.929688 C 22.832031 18.164062 19.804688 17.234375 16.667969 17.234375 C 14.304688 17.234375 12.03125 17.75 9.914062 18.773438 C 9.796875 18.828125 9.65625 18.78125 9.597656 18.664062 C 9.542969 18.542969 9.589844 18.402344 9.710938 18.347656 C 11.890625 17.292969 14.230469 16.757812 16.667969 16.757812 C 19.898438 16.757812 23.019531 17.71875 25.6875 19.535156 C 25.792969 19.609375 25.824219 19.757812 25.75 19.867188 C 25.703125 19.933594 25.628906 19.96875 25.550781 19.96875 " fill-opacity="1" fill-rule="nonzero"/></g><path fill="#286291" d="M 25.285156 44.945312 C 25.210938 44.945312 25.140625 44.910156 25.09375 44.847656 C 25.015625 44.742188 25.039062 44.59375 25.144531 44.515625 C 27.121094 43.078125 28.714844 41.15625 29.75 38.953125 C 29.808594 38.832031 29.949219 38.78125 30.066406 38.839844 C 30.1875 38.894531 30.238281 39.035156 30.179688 39.152344 C 29.109375 41.429688 27.464844 43.414062 25.425781 44.898438 C 25.382812 44.929688 25.335938 44.945312 25.285156 44.945312 " fill-opacity="1" fill-rule="nonzero"/><path fill="#f1ad53" d="M 16.667969 47.746094 C 13.453125 47.746094 10.390625 46.734375 7.804688 44.824219 C 6.5625 43.902344 5.476562 42.800781 4.570312 41.550781 C 3.652344 40.28125 2.945312 38.886719 2.464844 37.40625 C 2.425781 37.28125 2.492188 37.148438 2.617188 37.109375 C 2.742188 37.066406 2.875 37.136719 2.914062 37.261719 C 4.851562 43.25 10.378906 47.269531 16.667969 47.269531 C 17.953125 47.269531 19.230469 47.101562 20.460938 46.765625 C 20.585938 46.730469 20.71875 46.804688 20.753906 46.933594 C 20.785156 47.058594 20.710938 47.191406 20.585938 47.222656 C 19.3125 47.570312 17.996094 47.746094 16.667969 47.746094 " fill-opacity="1" fill-rule="nonzero"/><path fill="#f1ad53" d="M 31.351562 32.757812 C 31.222656 32.757812 31.117188 32.652344 31.113281 32.523438 C 30.957031 24.722656 24.476562 18.371094 16.667969 18.371094 C 11.980469 18.371094 7.5625 20.671875 4.847656 24.519531 C 4.773438 24.625 4.625 24.652344 4.519531 24.574219 C 4.410156 24.5 4.386719 24.351562 4.460938 24.246094 C 5.8125 22.324219 7.621094 20.730469 9.6875 19.632812 C 11.824219 18.5 14.238281 17.898438 16.667969 17.898438 C 20.59375 17.898438 24.304688 19.417969 27.113281 22.171875 C 29.921875 24.925781 31.507812 28.597656 31.589844 32.515625 C 31.589844 32.644531 31.488281 32.753906 31.355469 32.757812 C 31.355469 32.757812 31.351562 32.757812 31.351562 32.757812 " fill-opacity="1" fill-rule="nonzero"/><path fill="#f1ad53" d="M 12.832031 46.054688 C 12.808594 46.054688 12.785156 46.050781 12.761719 46.042969 C 9.96875 45.21875 7.457031 43.476562 5.683594 41.140625 C 3.851562 38.730469 2.882812 35.851562 2.882812 32.820312 C 2.882812 27.761719 5.65625 23.113281 10.121094 20.695312 C 10.234375 20.632812 10.378906 20.675781 10.441406 20.789062 C 10.503906 20.90625 10.460938 21.046875 10.347656 21.109375 C 6.035156 23.449219 3.359375 27.933594 3.359375 32.820312 C 3.359375 38.675781 7.28125 43.925781 12.898438 45.589844 C 13.023438 45.625 13.09375 45.757812 13.058594 45.882812 C 13.027344 45.988281 12.933594 46.054688 12.832031 46.054688 " fill-opacity="1" fill-rule="nonzero"/><path fill="#544f9f" d="M 16.667969 46.605469 C 16.617188 46.605469 16.570312 46.605469 16.519531 46.605469 C 16.386719 46.605469 16.28125 46.496094 16.285156 46.367188 C 16.285156 46.234375 16.390625 46.132812 16.523438 46.132812 C 16.570312 46.132812 16.621094 46.132812 16.667969 46.132812 C 24.007812 46.132812 29.976562 40.160156 29.976562 32.820312 C 29.976562 25.484375 24.007812 19.511719 16.667969 19.511719 C 16.558594 19.511719 16.449219 19.511719 16.339844 19.515625 C 16.210938 19.519531 16.101562 19.414062 16.097656 19.285156 C 16.09375 19.152344 16.199219 19.042969 16.328125 19.042969 C 16.441406 19.039062 16.554688 19.039062 16.667969 19.039062 C 24.269531 19.039062 30.453125 25.222656 30.453125 32.820312 C 30.453125 40.421875 24.269531 46.605469 16.667969 46.605469 " fill-opacity="1" fill-rule="nonzero"/><path fill="#f0401e" d="M 16.667969 45.46875 C 9.695312 45.46875 4.023438 39.796875 4.023438 32.820312 C 4.023438 25.847656 9.695312 20.175781 16.667969 20.175781 C 17.628906 20.175781 18.589844 20.285156 19.519531 20.5 C 19.648438 20.53125 19.726562 20.65625 19.699219 20.785156 C 19.667969 20.914062 19.539062 20.992188 19.414062 20.964844 C 18.519531 20.757812 17.59375 20.652344 16.667969 20.652344 C 9.957031 20.652344 4.496094 26.109375 4.496094 32.820312 C 4.496094 39.535156 9.957031 44.992188 16.667969 44.992188 C 17.945312 44.992188 19.207031 44.792969 20.414062 44.402344 C 20.539062 44.363281 20.671875 44.429688 20.714844 44.554688 C 20.753906 44.679688 20.6875 44.8125 20.5625 44.855469 C 19.308594 45.261719 17.996094 45.46875 16.667969 45.46875 " fill-opacity="1" fill-rule="nonzero"/><path fill="#544f9f" d="M 25.011719 42.238281 C 24.945312 42.238281 24.882812 42.210938 24.835938 42.160156 C 24.746094 42.0625 24.753906 41.914062 24.851562 41.824219 C 27.386719 39.519531 28.839844 36.238281 28.839844 32.820312 C 28.839844 28.820312 26.863281 25.066406 23.550781 22.789062 C 23.441406 22.714844 23.414062 22.566406 23.488281 22.460938 C 23.5625 22.351562 23.710938 22.324219 23.820312 22.398438 C 27.261719 24.765625 29.3125 28.664062 29.3125 32.820312 C 29.3125 34.632812 28.9375 36.378906 28.195312 38.019531 C 27.480469 39.601562 26.460938 41 25.167969 42.175781 C 25.125 42.21875 25.066406 42.238281 25.011719 42.238281 " fill-opacity="1" fill-rule="nonzero"/><path fill="#f0401e" d="M 16.667969 44.328125 C 12.753906 44.328125 9.140625 42.359375 7.003906 39.058594 C 6.929688 38.949219 6.960938 38.804688 7.074219 38.730469 C 7.183594 38.660156 7.328125 38.691406 7.402344 38.800781 C 9.449219 41.964844 12.914062 43.855469 16.667969 43.855469 C 22.75 43.855469 27.699219 38.90625 27.699219 32.820312 C 27.699219 32.335938 27.667969 31.851562 27.605469 31.375 C 27.589844 31.242188 27.679688 31.125 27.808594 31.109375 C 27.9375 31.089844 28.058594 31.183594 28.074219 31.3125 C 28.140625 31.808594 28.175781 32.316406 28.175781 32.820312 C 28.175781 39.167969 23.011719 44.328125 16.667969 44.328125 " fill-opacity="1" fill-rule="nonzero"/><path fill="#f1ad53" d="M 5.410156 33.59375 C 5.285156 33.59375 5.179688 33.496094 5.175781 33.367188 C 5.164062 33.1875 5.160156 33.003906 5.160156 32.820312 C 5.160156 26.476562 10.324219 21.316406 16.667969 21.316406 C 21.226562 21.316406 25.363281 24.019531 27.207031 28.199219 C 27.257812 28.320312 27.203125 28.460938 27.085938 28.515625 C 26.964844 28.566406 26.824219 28.511719 26.769531 28.390625 C 25.003906 24.382812 21.039062 21.789062 16.667969 21.789062 C 10.585938 21.789062 5.636719 26.738281 5.636719 32.820312 C 5.636719 32.996094 5.640625 33.171875 5.648438 33.347656 C 5.65625 33.476562 5.554688 33.589844 5.421875 33.59375 C 5.417969 33.59375 5.414062 33.59375 5.410156 33.59375 " fill-opacity="1" fill-rule="nonzero"/><path fill="#5db3e7" d="M 16.667969 43.191406 C 10.953125 43.191406 6.300781 38.539062 6.300781 32.820312 C 6.300781 31.164062 6.683594 29.578125 7.433594 28.109375 C 7.496094 27.992188 7.636719 27.945312 7.753906 28.003906 C 7.871094 28.066406 7.917969 28.207031 7.859375 28.324219 C 7.140625 29.726562 6.773438 31.238281 6.773438 32.820312 C 6.773438 38.277344 11.214844 42.714844 16.667969 42.714844 C 19.636719 42.714844 22.421875 41.394531 24.3125 39.09375 C 24.394531 38.992188 24.546875 38.976562 24.648438 39.0625 C 24.75 39.144531 24.761719 39.292969 24.679688 39.394531 C 22.699219 41.808594 19.777344 43.191406 16.667969 43.191406 " fill-opacity="1" fill-rule="nonzero"/><path fill="#54afe6" d="M 26.304688 36.191406 C 26.277344 36.191406 26.253906 36.1875 26.230469 36.179688 C 26.105469 36.136719 26.035156 36.003906 26.078125 35.878906 C 26.398438 34.894531 26.5625 33.867188 26.5625 32.820312 C 26.5625 27.367188 22.121094 22.929688 16.667969 22.929688 C 15.0625 22.929688 13.464844 23.324219 12.050781 24.074219 C 11.933594 24.136719 11.792969 24.089844 11.730469 23.976562 C 11.667969 23.859375 11.710938 23.714844 11.828125 23.65625 C 13.308594 22.871094 14.984375 22.453125 16.667969 22.453125 C 22.382812 22.453125 27.035156 27.105469 27.035156 32.820312 C 27.035156 33.914062 26.863281 34.992188 26.527344 36.027344 C 26.496094 36.125 26.402344 36.191406 26.304688 36.191406 " fill-opacity="1" fill-rule="nonzero"/><path fill="#544f9f" d="M 16.667969 42.050781 C 15.949219 42.050781 15.234375 41.96875 14.542969 41.804688 C 14.414062 41.773438 14.335938 41.644531 14.367188 41.519531 C 14.398438 41.390625 14.523438 41.3125 14.652344 41.34375 C 15.308594 41.496094 15.988281 41.574219 16.667969 41.574219 C 21.496094 41.574219 25.421875 37.648438 25.421875 32.820312 C 25.421875 27.996094 21.496094 24.066406 16.667969 24.066406 C 11.839844 24.066406 7.914062 27.996094 7.914062 32.820312 C 7.914062 35.378906 9.03125 37.804688 10.980469 39.472656 C 11.082031 39.558594 11.09375 39.707031 11.007812 39.808594 C 10.921875 39.90625 10.773438 39.917969 10.671875 39.832031 C 8.617188 38.074219 7.441406 35.519531 7.441406 32.820312 C 7.441406 27.734375 11.578125 23.59375 16.667969 23.59375 C 21.757812 23.59375 25.898438 27.734375 25.898438 32.820312 C 25.898438 37.910156 21.757812 42.050781 16.667969 42.050781 " fill-opacity="1" fill-rule="nonzero"/><path fill="#f1ad53" d="M 16.667969 40.910156 C 15.027344 40.910156 13.449219 40.421875 12.097656 39.492188 C 10.78125 38.589844 9.765625 37.332031 9.167969 35.855469 C 9.121094 35.734375 9.179688 35.59375 9.300781 35.546875 C 9.421875 35.496094 9.558594 35.554688 9.609375 35.675781 C 10.78125 38.570312 13.554688 40.4375 16.667969 40.4375 C 20.867188 40.4375 24.28125 37.019531 24.28125 32.820312 C 24.28125 29.949219 22.691406 27.351562 20.125 26.039062 C 20.007812 25.980469 19.964844 25.835938 20.023438 25.71875 C 20.082031 25.601562 20.226562 25.554688 20.34375 25.617188 C 21.648438 26.285156 22.75 27.296875 23.53125 28.542969 C 24.332031 29.828125 24.757812 31.304688 24.757812 32.820312 C 24.757812 37.28125 21.128906 40.910156 16.667969 40.910156 " fill-opacity="1" fill-rule="nonzero"/><path fill="#5db3e7" d="M 9.078125 31.039062 C 9.058594 31.039062 9.039062 31.035156 9.019531 31.03125 C 8.890625 30.996094 8.816406 30.867188 8.851562 30.738281 C 9.289062 29.097656 10.265625 27.597656 11.597656 26.523438 C 12.972656 25.414062 14.625 24.796875 16.382812 24.738281 C 16.515625 24.734375 16.625 24.835938 16.628906 24.964844 C 16.632812 25.097656 16.53125 25.207031 16.402344 25.210938 C 13.082031 25.328125 10.164062 27.648438 9.308594 30.863281 C 9.28125 30.96875 9.183594 31.039062 9.078125 31.039062 " fill-opacity="1" fill-rule="nonzero"/><path fill="#f14d27" d="M 16.667969 39.773438 C 12.835938 39.773438 9.71875 36.65625 9.71875 32.820312 C 9.71875 28.988281 12.835938 25.871094 16.667969 25.871094 C 20.5 25.871094 23.617188 28.988281 23.617188 32.820312 C 23.617188 33.355469 23.558594 33.886719 23.4375 34.402344 C 23.40625 34.53125 23.28125 34.609375 23.152344 34.582031 C 23.023438 34.550781 22.945312 34.421875 22.976562 34.296875 C 23.085938 33.816406 23.144531 33.320312 23.144531 32.820312 C 23.144531 29.25 20.238281 26.347656 16.667969 26.347656 C 13.097656 26.347656 10.191406 29.25 10.191406 32.820312 C 10.191406 36.394531 13.097656 39.296875 16.667969 39.296875 C 17.847656 39.296875 19 38.976562 20.007812 38.371094 C 20.117188 38.304688 20.265625 38.339844 20.332031 38.453125 C 20.398438 38.566406 20.363281 38.710938 20.25 38.777344 C 19.171875 39.429688 17.933594 39.773438 16.667969 39.773438 " fill-opacity="1" fill-rule="nonzero"/><g fill="#ffffff" fill-opacity="1"><g transform="translate(46.299034, 43.993145)"><g><path d="M 3.265625 -22.578125 C 3.265625 -23.347656 3.535156 -24 4.078125 -24.53125 C 4.617188 -25.070312 5.269531 -25.34375 6.03125 -25.34375 C 6.800781 -25.34375 7.453125 -25.070312 7.984375 -24.53125 C 8.523438 -24 8.796875 -23.347656 8.796875 -22.578125 L 8.796875 -2.546875 C 8.796875 -1.785156 8.523438 -1.132812 7.984375 -0.59375 C 7.453125 -0.0507812 6.800781 0.21875 6.03125 0.21875 C 5.269531 0.21875 4.617188 -0.0507812 4.078125 -0.59375 C 3.535156 -1.132812 3.265625 -1.785156 3.265625 -2.546875 Z M 3.265625 -22.578125 "/></g></g></g><g fill="#ffffff" fill-opacity="1"><g transform="translate(56.424324, 43.993145)"><g><path d="M 4.0625 -7.28125 C 4.414062 -7.28125 4.71875 -7.226562 4.96875 -7.125 C 5.21875 -7.019531 5.441406 -6.90625 5.640625 -6.78125 C 6.597656 -6.09375 7.601562 -5.546875 8.65625 -5.140625 C 9.707031 -4.734375 10.84375 -4.53125 12.0625 -4.53125 C 13.207031 -4.53125 14.097656 -4.738281 14.734375 -5.15625 C 15.367188 -5.570312 15.6875 -6.148438 15.6875 -6.890625 L 15.6875 -6.96875 C 15.6875 -7.320312 15.617188 -7.632812 15.484375 -7.90625 C 15.359375 -8.1875 15.109375 -8.453125 14.734375 -8.703125 C 14.367188 -8.953125 13.851562 -9.191406 13.1875 -9.421875 C 12.53125 -9.648438 11.675781 -9.894531 10.625 -10.15625 C 9.351562 -10.46875 8.203125 -10.804688 7.171875 -11.171875 C 6.148438 -11.546875 5.28125 -12.019531 4.5625 -12.59375 C 3.84375 -13.175781 3.285156 -13.882812 2.890625 -14.71875 C 2.492188 -15.5625 2.296875 -16.601562 2.296875 -17.84375 L 2.296875 -17.921875 C 2.296875 -19.066406 2.507812 -20.097656 2.9375 -21.015625 C 3.375 -21.941406 3.976562 -22.738281 4.75 -23.40625 C 5.53125 -24.082031 6.457031 -24.597656 7.53125 -24.953125 C 8.613281 -25.316406 9.800781 -25.5 11.09375 -25.5 C 14.132812 -25.5 16.789062 -24.753906 19.0625 -23.265625 C 19.375 -23.078125 19.65625 -22.800781 19.90625 -22.4375 C 20.15625 -22.082031 20.28125 -21.628906 20.28125 -21.078125 C 20.28125 -20.359375 20.03125 -19.753906 19.53125 -19.265625 C 19.03125 -18.773438 18.421875 -18.53125 17.703125 -18.53125 C 17.203125 -18.53125 16.734375 -18.660156 16.296875 -18.921875 C 14.484375 -20.046875 12.722656 -20.609375 11.015625 -20.609375 C 9.941406 -20.609375 9.132812 -20.398438 8.59375 -19.984375 C 8.0625 -19.566406 7.796875 -19.046875 7.796875 -18.421875 L 7.796875 -18.34375 C 7.796875 -17.914062 7.875 -17.554688 8.03125 -17.265625 C 8.1875 -16.984375 8.46875 -16.726562 8.875 -16.5 C 9.28125 -16.269531 9.832031 -16.039062 10.53125 -15.8125 C 11.238281 -15.582031 12.132812 -15.328125 13.21875 -15.046875 C 14.476562 -14.710938 15.601562 -14.332031 16.59375 -13.90625 C 17.59375 -13.488281 18.429688 -12.988281 19.109375 -12.40625 C 19.796875 -11.820312 20.3125 -11.132812 20.65625 -10.34375 C 21.007812 -9.550781 21.1875 -8.601562 21.1875 -7.5 L 21.1875 -7.4375 C 21.1875 -6.1875 20.957031 -5.078125 20.5 -4.109375 C 20.039062 -3.140625 19.40625 -2.328125 18.59375 -1.671875 C 17.78125 -1.015625 16.8125 -0.507812 15.6875 -0.15625 C 14.5625 0.1875 13.316406 0.359375 11.953125 0.359375 C 10.304688 0.359375 8.679688 0.109375 7.078125 -0.390625 C 5.472656 -0.898438 3.953125 -1.65625 2.515625 -2.65625 C 2.203125 -2.875 1.945312 -3.164062 1.75 -3.53125 C 1.5625 -3.90625 1.46875 -4.304688 1.46875 -4.734375 C 1.46875 -5.453125 1.71875 -6.054688 2.21875 -6.546875 C 2.726562 -7.035156 3.34375 -7.28125 4.0625 -7.28125 Z M 4.0625 -7.28125 "/></g></g></g><g fill="#ffffff" fill-opacity="1"><g transform="translate(77.465198, 43.993145)"><g><path d="M 4.0625 -7.28125 C 4.414062 -7.28125 4.71875 -7.226562 4.96875 -7.125 C 5.21875 -7.019531 5.441406 -6.90625 5.640625 -6.78125 C 6.597656 -6.09375 7.601562 -5.546875 8.65625 -5.140625 C 9.707031 -4.734375 10.84375 -4.53125 12.0625 -4.53125 C 13.207031 -4.53125 14.097656 -4.738281 14.734375 -5.15625 C 15.367188 -5.570312 15.6875 -6.148438 15.6875 -6.890625 L 15.6875 -6.96875 C 15.6875 -7.320312 15.617188 -7.632812 15.484375 -7.90625 C 15.359375 -8.1875 15.109375 -8.453125 14.734375 -8.703125 C 14.367188 -8.953125 13.851562 -9.191406 13.1875 -9.421875 C 12.53125 -9.648438 11.675781 -9.894531 10.625 -10.15625 C 9.351562 -10.46875 8.203125 -10.804688 7.171875 -11.171875 C 6.148438 -11.546875 5.28125 -12.019531 4.5625 -12.59375 C 3.84375 -13.175781 3.285156 -13.882812 2.890625 -14.71875 C 2.492188 -15.5625 2.296875 -16.601562 2.296875 -17.84375 L 2.296875 -17.921875 C 2.296875 -19.066406 2.507812 -20.097656 2.9375 -21.015625 C 3.375 -21.941406 3.976562 -22.738281 4.75 -23.40625 C 5.53125 -24.082031 6.457031 -24.597656 7.53125 -24.953125 C 8.613281 -25.316406 9.800781 -25.5 11.09375 -25.5 C 14.132812 -25.5 16.789062 -24.753906 19.0625 -23.265625 C 19.375 -23.078125 19.65625 -22.800781 19.90625 -22.4375 C 20.15625 -22.082031 20.28125 -21.628906 20.28125 -21.078125 C 20.28125 -20.359375 20.03125 -19.753906 19.53125 -19.265625 C 19.03125 -18.773438 18.421875 -18.53125 17.703125 -18.53125 C 17.203125 -18.53125 16.734375 -18.660156 16.296875 -18.921875 C 14.484375 -20.046875 12.722656 -20.609375 11.015625 -20.609375 C 9.941406 -20.609375 9.132812 -20.398438 8.59375 -19.984375 C 8.0625 -19.566406 7.796875 -19.046875 7.796875 -18.421875 L 7.796875 -18.34375 C 7.796875 -17.914062 7.875 -17.554688 8.03125 -17.265625 C 8.1875 -16.984375 8.46875 -16.726562 8.875 -16.5 C 9.28125 -16.269531 9.832031 -16.039062 10.53125 -15.8125 C 11.238281 -15.582031 12.132812 -15.328125 13.21875 -15.046875 C 14.476562 -14.710938 15.601562 -14.332031 16.59375 -13.90625 C 17.59375 -13.488281 18.429688 -12.988281 19.109375 -12.40625 C 19.796875 -11.820312 20.3125 -11.132812 20.65625 -10.34375 C 21.007812 -9.550781 21.1875 -8.601562 21.1875 -7.5 L 21.1875 -7.4375 C 21.1875 -6.1875 20.957031 -5.078125 20.5 -4.109375 C 20.039062 -3.140625 19.40625 -2.328125 18.59375 -1.671875 C 17.78125 -1.015625 16.8125 -0.507812 15.6875 -0.15625 C 14.5625 0.1875 13.316406 0.359375 11.953125 0.359375 C 10.304688 0.359375 8.679688 0.109375 7.078125 -0.390625 C 5.472656 -0.898438 3.953125 -1.65625 2.515625 -2.65625 C 2.203125 -2.875 1.945312 -3.164062 1.75 -3.53125 C 1.5625 -3.90625 1.46875 -4.304688 1.46875 -4.734375 C 1.46875 -5.453125 1.71875 -6.054688 2.21875 -6.546875 C 2.726562 -7.035156 3.34375 -7.28125 4.0625 -7.28125 Z M 4.0625 -7.28125 "/></g></g></g><g fill="#ffffff" fill-opacity="1"><g transform="translate(98.506071, 43.993145)"><g><path d="M 3.015625 -22.375 C 3.015625 -23.132812 3.28125 -23.785156 3.8125 -24.328125 C 4.351562 -24.867188 5.007812 -25.140625 5.78125 -25.140625 L 13.28125 -25.140625 C 14.789062 -25.140625 16.140625 -24.925781 17.328125 -24.5 C 18.515625 -24.082031 19.519531 -23.488281 20.34375 -22.71875 C 21.164062 -21.957031 21.796875 -21.046875 22.234375 -19.984375 C 22.679688 -18.921875 22.90625 -17.738281 22.90625 -16.4375 L 22.90625 -16.375 C 22.90625 -14.914062 22.640625 -13.632812 22.109375 -12.53125 C 21.585938 -11.425781 20.863281 -10.503906 19.9375 -9.765625 C 19.019531 -9.023438 17.941406 -8.46875 16.703125 -8.09375 C 15.472656 -7.726562 14.15625 -7.546875 12.75 -7.546875 L 8.546875 -7.546875 L 8.546875 -2.546875 C 8.546875 -1.785156 8.273438 -1.132812 7.734375 -0.59375 C 7.203125 -0.0507812 6.550781 0.21875 5.78125 0.21875 C 5.007812 0.21875 4.351562 -0.0507812 3.8125 -0.59375 C 3.28125 -1.132812 3.015625 -1.785156 3.015625 -2.546875 Z M 8.546875 -12.453125 L 12.921875 -12.453125 C 14.316406 -12.453125 15.394531 -12.816406 16.15625 -13.546875 C 16.925781 -14.285156 17.3125 -15.191406 17.3125 -16.265625 L 17.3125 -16.34375 C 17.3125 -17.582031 16.910156 -18.523438 16.109375 -19.171875 C 15.304688 -19.816406 14.207031 -20.140625 12.8125 -20.140625 L 8.546875 -20.140625 Z M 8.546875 -12.453125 "/></g></g></g></svg>
